# xmcd
#
# Track frame offsets: 
#        150
#        20780
#        46715
#        48977
#        65890
#        82965
#        101710
#        119477
#        136717
#        154012
#        173890
#        190207
#
# Disc length: 3126 seconds
#
# Revision: 6
# Processed by: cddbd v1.5.2PL0 Copyright (c) Steve Scherf et al.
# Submitted via: ExactAudioCopy v0.99pb3
#
DISCID=9f0c340c
DTITLE=Little Milton - Welcome to Little Milton
DYEAR=1999
DGENRE=Blues
TTITLE0=When the Blues Come Knocking w/Gov't Mule
TTITLE1=Right to Sing the Blues
TTITLE2=Recitation w/John Sinclair
TTITLE3=Mother Earth w/Susan Tedeschi
TTITLE4=Never Trust a Woman w/Dave Allvin
TTITLE5=Love Hurts w/Lucinda Williams
TTITLE6=Gimme' My Broom w/Keb' Mo'
TTITLE7=Two Loves w/Peter Wolf
TTITLE8=Lump on Your Stump
TTITLE9=Me and My Woman w/G. Love and Special Sauce
TTITLE10=Some Kind of Wonderful w/Delbert McClinton
TTITLE11=I Can't Quit You, Baby w/Gov't Mule
EXTD=Label: Malaco \nCredits:\n  Jerry Smith Vocals,\n  Delbert McClin
EXTD=ton Performer  \n  Little Milton Guitar, Main Performer  \n  Clay
EXTD=ton Ivey Wurlitzer  \n  Steve Patrick Trumpet  \n  Warren Haynes 
EXTD=Guitar  \n  The Children of Israel Vocals, Vocals (Background)  \n
EXTD=John Sinclair Recitation  \n  Allen Woody Bass  \n  Freddie You
EXTD=ng Vocals, Vocals (Background)  \n  Gov't Mule Performers \n  Wil
EXTD=l McFarlane Guitar  \n  Jim Williamson Trumpet  \n  Aaron Love Gu
EXTD=itar  \n  Matt Abts Drums  \n  Lucinda Williams Performer  \n  Pe
EXTD=ter Wolf Performer\n  George Lawrence Drums, Percussion  \n  Dave
EXTD=Alvin Guitar, Performer  \n  David Hood Bass  \n  Ivey Clayton K
EXTD=nechtel Organ  \n  Harvey Thompson Sax (Tenor)  \n  Keb' Mo' Guit
EXTD=ar  \n  G. Love Performer  \n  Jewel Bass Vocals, Vocals (Backgro
EXTD=und)  \n  Charles Rose Arranger, Trombone  \n  Doug Moffat Sax (T
EXTD=enor)  \n  Jim Horn Sax (Baritone)  \n  Susan Tedeschi Performer 
EXTD=\n  Special Sauce Performer
EXTT0=
EXTT1=
EXTT2=
EXTT3=
EXTT4=
EXTT5=
EXTT6=
EXTT7=
EXTT8=
EXTT9=
EXTT10=
EXTT11=
PLAYORDER=
